<?xml version="1.0" encoding="UTF-8"?>
<svg xmlns="http://www.w3.org/2000/svg" xmlns:xlink="http://www.w3.org/1999/xlink" width="375pt" height="374.999991pt" viewBox="0 0 375 374.999991" version="1.2">
<defs>
<clipPath id="clip1">
  <path d="M 62.753906 281 L 311 281 L 311 311.902344 L 62.753906 311.902344 Z M 62.753906 281 "/>
</clipPath>
<clipPath id="clip2">
  <path d="M 259 115 L 311.753906 115 L 311.753906 127 L 259 127 Z M 259 115 "/>
</clipPath>
<clipPath id="clip3">
  <path d="M 62.753906 115 L 115 115 L 115 127 L 62.753906 127 Z M 62.753906 115 "/>
</clipPath>
<clipPath id="clip4">
  <path d="M 70 61 L 123 61 L 123 94 L 70 94 Z M 70 61 "/>
</clipPath>
<clipPath id="clip5">
  <path d="M 74.171875 59.570312 L 125.273438 83.070312 L 119.320312 96.015625 L 68.214844 72.515625 Z M 74.171875 59.570312 "/>
</clipPath>
<clipPath id="clip6">
  <path d="M 74.171875 59.570312 L 125.273438 83.070312 L 119.320312 96.015625 L 68.214844 72.515625 Z M 74.171875 59.570312 "/>
</clipPath>
<clipPath id="clip7">
  <path d="M 250 147 L 303 147 L 303 179 L 250 179 Z M 250 147 "/>
</clipPath>
<clipPath id="clip8">
  <path d="M 253.6875 144.730469 L 304.792969 168.230469 L 298.835938 181.179688 L 247.734375 157.675781 Z M 253.6875 144.730469 "/>
</clipPath>
<clipPath id="clip9">
  <path d="M 253.6875 144.730469 L 304.792969 168.230469 L 298.835938 181.179688 L 247.734375 157.675781 Z M 253.6875 144.730469 "/>
</clipPath>
<clipPath id="clip10">
  <path d="M 62.753906 113.082031 L 119.003906 113.082031 L 119.003906 127.332031 L 62.753906 127.332031 Z M 62.753906 113.082031 "/>
</clipPath>
<clipPath id="clip11">
  <path d="M 255.554688 113.082031 L 311.804688 113.082031 L 311.804688 127.332031 L 255.554688 127.332031 Z M 255.554688 113.082031 "/>
</clipPath>
<clipPath id="clip12">
  <path d="M 70 147 L 124 147 L 124 180 L 70 180 Z M 70 147 "/>
</clipPath>
<clipPath id="clip13">
  <path d="M 68.335938 168.558594 L 119.320312 144.789062 L 125.339844 157.703125 L 74.359375 181.472656 Z M 68.335938 168.558594 "/>
</clipPath>
<clipPath id="clip14">
  <path d="M 68.335938 168.558594 L 119.320312 144.789062 L 125.339844 157.703125 L 74.359375 181.472656 Z M 68.335938 168.558594 "/>
</clipPath>
<clipPath id="clip15">
  <path d="M 250 61 L 303 61 L 303 94 L 250 94 Z M 250 61 "/>
</clipPath>
<clipPath id="clip16">
  <path d="M 247.851562 83.394531 L 298.835938 59.628906 L 304.855469 72.542969 L 253.875 96.3125 Z M 247.851562 83.394531 "/>
</clipPath>
<clipPath id="clip17">
  <path d="M 247.851562 83.394531 L 298.835938 59.628906 L 304.855469 72.542969 L 253.875 96.3125 Z M 247.851562 83.394531 "/>
</clipPath>
</defs>
<g id="surface1">
<path style=" stroke:none;fill-rule:nonzero;fill:rgb(100%,92.549133%,30.589294%);fill-opacity:1;" d="M 187.347656 0 C 184.28125 0 181.21875 0.0742188 178.15625 0.226562 C 175.09375 0.375 172.035156 0.601562 168.984375 0.902344 C 165.933594 1.203125 162.890625 1.578125 159.859375 2.03125 C 156.824219 2.480469 153.804688 3.003906 150.800781 3.601562 C 147.792969 4.203125 144.800781 4.875 141.828125 5.617188 C 138.851562 6.363281 135.898438 7.183594 132.964844 8.074219 C 130.03125 8.964844 127.121094 9.925781 124.234375 10.960938 C 121.347656 11.996094 118.484375 13.097656 115.652344 14.273438 C 112.820312 15.445312 110.019531 16.691406 107.246094 18.003906 C 104.476562 19.3125 101.738281 20.691406 99.03125 22.140625 C 96.328125 23.585938 93.664062 25.097656 91.03125 26.675781 C 88.402344 28.253906 85.8125 29.894531 83.261719 31.597656 C 80.714844 33.304688 78.207031 35.070312 75.746094 36.898438 C 73.28125 38.726562 70.867188 40.613281 68.496094 42.558594 C 66.125 44.507812 63.804688 46.511719 61.53125 48.570312 C 59.261719 50.632812 57.042969 52.746094 54.875 54.917969 C 52.707031 57.085938 50.589844 59.308594 48.53125 61.582031 C 46.472656 63.855469 44.472656 66.179688 42.527344 68.550781 C 40.582031 70.921875 38.695312 73.339844 36.867188 75.804688 C 35.042969 78.269531 33.277344 80.777344 31.574219 83.332031 C 29.871094 85.882812 28.230469 88.472656 26.65625 91.105469 C 25.078125 93.738281 23.566406 96.40625 22.121094 99.113281 C 20.675781 101.820312 19.296875 104.558594 17.988281 107.332031 C 16.675781 110.105469 15.433594 112.910156 14.261719 115.746094 C 13.085938 118.582031 11.984375 121.445312 10.953125 124.332031 C 9.917969 127.222656 8.957031 130.136719 8.066406 133.070312 C 7.175781 136.007812 6.359375 138.964844 5.613281 141.941406 C 4.871094 144.917969 4.199219 147.910156 3.601562 150.921875 C 3 153.929688 2.476562 156.953125 2.027344 159.988281 C 1.578125 163.023438 1.203125 166.066406 0.902344 169.121094 C 0.601562 172.175781 0.375 175.234375 0.226562 178.300781 C 0.0742188 181.363281 0 184.429688 0 187.5 C 0 190.570312 0.0742188 193.636719 0.226562 196.699219 C 0.375 199.765625 0.601562 202.824219 0.902344 205.878906 C 1.203125 208.933594 1.578125 211.976562 2.027344 215.011719 C 2.476562 218.046875 3 221.070312 3.601562 224.078125 C 4.199219 227.089844 4.871094 230.082031 5.613281 233.058594 C 6.359375 236.035156 7.175781 238.992188 8.066406 241.929688 C 8.957031 244.863281 9.917969 247.777344 10.953125 250.667969 C 11.984375 253.554688 13.085938 256.417969 14.261719 259.253906 C 15.433594 262.089844 16.675781 264.890625 17.988281 267.667969 C 19.296875 270.441406 20.675781 273.179688 22.121094 275.886719 C 23.566406 278.59375 25.078125 281.261719 26.65625 283.894531 C 28.230469 286.527344 29.871094 289.117188 31.574219 291.667969 C 33.277344 294.222656 35.042969 296.730469 36.867188 299.195312 C 38.695312 301.660156 40.582031 304.078125 42.527344 306.449219 C 44.472656 308.820312 46.472656 311.144531 48.53125 313.417969 C 50.589844 315.691406 52.707031 317.914062 54.875 320.082031 C 57.042969 322.253906 59.261719 324.367188 61.53125 326.429688 C 63.804688 328.488281 66.125 330.492188 68.496094 332.4375 C 70.867188 334.386719 73.28125 336.273438 75.746094 338.101562 C 78.207031 339.929688 80.714844 341.695312 83.261719 343.402344 C 85.8125 345.105469 88.402344 346.746094 91.03125 348.324219 C 93.664062 349.902344 96.328125 351.414062 99.03125 352.859375 C 101.738281 354.308594 104.476562 355.6875 107.246094 356.996094 C 110.019531 358.308594 112.820312 359.554688 115.652344 360.726562 C 118.484375 361.902344 121.347656 363.003906 124.234375 364.039062 C 127.121094 365.074219 130.03125 366.035156 132.964844 366.925781 C 135.898438 367.816406 138.851562 368.636719 141.828125 369.378906 C 144.800781 370.125 147.792969 370.796875 150.800781 371.398438 C 153.804688 371.996094 156.824219 372.519531 159.859375 372.96875 C 162.890625 373.421875 165.933594 373.796875 168.984375 374.097656 C 172.035156 374.398438 175.09375 374.625 178.15625 374.773438 C 181.21875 374.925781 184.28125 375 187.347656 375 C 190.414062 375 193.480469 374.925781 196.542969 374.773438 C 199.605469 374.625 202.660156 374.398438 205.710938 374.097656 C 208.761719 373.796875 211.804688 373.421875 214.839844 372.96875 C 217.871094 372.519531 220.890625 371.996094 223.898438 371.398438 C 226.90625 370.796875 229.898438 370.125 232.871094 369.378906 C 235.84375 368.636719 238.800781 367.816406 241.734375 366.925781 C 244.667969 366.035156 247.578125 365.074219 250.464844 364.039062 C 253.351562 363.003906 256.210938 361.902344 259.042969 360.726562 C 261.875 359.554688 264.679688 358.308594 267.449219 356.996094 C 270.222656 355.6875 272.960938 354.308594 275.664062 352.859375 C 278.367188 351.414062 281.035156 349.902344 283.664062 348.324219 C 286.296875 346.746094 288.886719 345.105469 291.433594 343.402344 C 293.984375 341.695312 296.488281 339.929688 298.953125 338.101562 C 301.414062 336.273438 303.832031 334.386719 306.203125 332.4375 C 308.570312 330.492188 310.894531 328.488281 313.164062 326.429688 C 315.4375 324.367188 317.65625 322.253906 319.824219 320.082031 C 321.992188 317.914062 324.105469 315.691406 326.164062 313.417969 C 328.222656 311.144531 330.226562 308.820312 332.171875 306.449219 C 334.117188 304.078125 336.003906 301.660156 337.828125 299.195312 C 339.65625 296.730469 341.421875 294.222656 343.125 291.667969 C 344.828125 289.117188 346.46875 286.527344 348.042969 283.894531 C 349.621094 281.261719 351.128906 278.59375 352.574219 275.886719 C 354.019531 273.179688 355.398438 270.441406 356.710938 267.667969 C 358.019531 264.890625 359.261719 262.089844 360.4375 259.253906 C 361.609375 256.417969 362.714844 253.554688 363.746094 250.667969 C 364.777344 247.777344 365.742188 244.863281 366.628906 241.929688 C 367.519531 238.992188 368.339844 236.035156 369.082031 233.058594 C 369.828125 230.082031 370.5 227.089844 371.097656 224.078125 C 371.695312 221.070312 372.21875 218.046875 372.667969 215.011719 C 373.121094 211.976562 373.496094 208.933594 373.796875 205.878906 C 374.097656 202.824219 374.320312 199.765625 374.472656 196.699219 C 374.621094 193.636719 374.699219 190.570312 374.699219 187.5 C 374.699219 184.429688 374.621094 181.363281 374.472656 178.300781 C 374.320312 175.234375 374.097656 172.175781 373.796875 169.121094 C 373.496094 166.066406 373.121094 163.023438 372.667969 159.988281 C 372.21875 156.953125 371.695312 153.929688 371.097656 150.921875 C 370.5 147.910156 369.828125 144.917969 369.082031 141.941406 C 368.339844 138.964844 367.519531 136.007812 366.628906 133.070312 C 365.742188 130.136719 364.777344 127.222656 363.746094 124.332031 C 362.714844 121.445312 361.609375 118.582031 360.4375 115.746094 C 359.261719 112.910156 358.019531 110.105469 356.710938 107.332031 C 355.398438 104.558594 354.019531 101.820312 352.574219 99.113281 C 351.128906 96.40625 349.621094 93.738281 348.042969 91.105469 C 346.46875 88.472656 344.828125 85.882812 343.125 83.332031 C 341.421875 80.777344 339.65625 78.269531 337.828125 75.804688 C 336.003906 73.339844 334.117188 70.921875 332.171875 68.550781 C 330.226562 66.179688 328.222656 63.855469 326.164062 61.582031 C 324.105469 59.308594 321.992188 57.085938 319.824219 54.917969 C 317.65625 52.746094 315.4375 50.632812 313.164062 48.570312 C 310.894531 46.511719 308.570312 44.507812 306.203125 42.558594 C 303.832031 40.613281 301.414062 38.726562 298.953125 36.898438 C 296.488281 35.070312 293.984375 33.304688 291.433594 31.597656 C 288.886719 29.894531 286.296875 28.253906 283.664062 26.675781 C 281.035156 25.097656 278.367188 23.585938 275.664062 22.140625 C 272.960938 20.691406 270.222656 19.3125 267.449219 18.003906 C 264.679688 16.691406 261.875 15.445312 259.042969 14.273438 C 256.210938 13.097656 253.351562 11.996094 250.464844 10.960938 C 247.578125 9.925781 244.667969 8.964844 241.734375 8.074219 C 238.800781 7.183594 235.84375 6.363281 232.871094 5.617188 C 229.898438 4.875 226.90625 4.203125 223.898438 3.601562 C 220.890625 3.003906 217.871094 2.480469 214.839844 2.03125 C 211.804688 1.578125 208.761719 1.203125 205.710938 0.902344 C 202.660156 0.601562 199.605469 0.375 196.542969 0.226562 C 193.480469 0.0742188 190.414062 0 187.347656 0 Z M 187.347656 0 "/>
<path style=" stroke:none;fill-rule:nonzero;fill:rgb(16.859436%,16.859436%,16.859436%);fill-opacity:1;" d="M 187.5 7.660156 C 184.558594 7.660156 181.617188 7.734375 178.675781 7.878906 C 175.734375 8.023438 172.800781 8.238281 169.871094 8.527344 C 166.945312 8.816406 164.023438 9.175781 161.113281 9.609375 C 158.199219 10.039062 155.300781 10.542969 152.414062 11.117188 C 149.527344 11.691406 146.65625 12.335938 143.804688 13.050781 C 140.949219 13.765625 138.113281 14.550781 135.296875 15.40625 C 132.480469 16.257812 129.683594 17.183594 126.914062 18.175781 C 124.144531 19.164062 121.398438 20.222656 118.679688 21.351562 C 115.960938 22.476562 113.269531 23.667969 110.609375 24.925781 C 107.949219 26.1875 105.320312 27.507812 102.722656 28.894531 C 100.128906 30.285156 97.570312 31.734375 95.042969 33.246094 C 92.519531 34.761719 90.035156 36.335938 87.585938 37.96875 C 85.140625 39.605469 82.734375 41.300781 80.371094 43.050781 C 78.007812 44.804688 75.6875 46.617188 73.410156 48.484375 C 71.136719 50.351562 68.910156 52.273438 66.726562 54.25 C 64.546875 56.226562 62.414062 58.253906 60.335938 60.335938 C 58.253906 62.414062 56.226562 64.546875 54.25 66.726562 C 52.273438 68.910156 50.351562 71.136719 48.484375 73.410156 C 46.617188 75.6875 44.804688 78.007812 43.050781 80.371094 C 41.300781 82.734375 39.605469 85.140625 37.96875 87.585938 C 36.335938 90.035156 34.761719 92.519531 33.246094 95.042969 C 31.734375 97.570312 30.285156 100.128906 28.894531 102.722656 C 27.507812 105.320312 26.1875 107.949219 24.925781 110.609375 C 23.667969 113.269531 22.476562 115.960938 21.351562 118.679688 C 20.222656 121.398438 19.164062 124.144531 18.175781 126.914062 C 17.183594 129.683594 16.257812 132.480469 15.40625 135.296875 C 14.550781 138.113281 13.765625 140.949219 13.050781 143.804688 C 12.335938 146.65625 11.691406 149.527344 11.117188 152.414062 C 10.542969 155.300781 10.039062 158.199219 9.609375 161.113281 C 9.175781 164.023438 8.816406 166.945312 8.527344 169.871094 C 8.238281 172.800781 8.023438 175.734375 7.878906 178.675781 C 7.734375 181.617188 7.660156 184.558594 7.660156 187.5 C 7.660156 190.441406 7.734375 193.382812 7.878906 196.324219 C 8.023438 199.265625 8.238281 202.199219 8.527344 205.128906 C 8.816406 208.054688 9.175781 210.976562 9.609375 213.886719 C 10.039062 216.800781 10.542969 219.699219 11.117188 222.585938 C 11.691406 225.472656 12.335938 228.34375 13.050781 231.195312 C 13.765625 234.050781 14.550781 236.886719 15.40625 239.703125 C 16.257812 242.519531 17.183594 245.316406 18.175781 248.085938 C 19.164062 250.855469 20.222656 253.601562 21.351562 256.320312 C 22.476562 259.039062 23.667969 261.730469 24.925781 264.390625 C 26.1875 267.050781 27.507812 269.679688 28.894531 272.273438 C 30.285156 274.871094 31.734375 277.429688 33.246094 279.957031 C 34.761719 282.480469 36.335938 284.964844 37.96875 287.414062 C 39.605469 289.859375 41.300781 292.265625 43.050781 294.628906 C 44.804688 296.992188 46.617188 299.3125 48.484375 301.589844 C 50.351562 303.863281 52.273438 306.089844 54.25 308.273438 C 56.226562 310.453125 58.253906 312.582031 60.335938 314.664062 C 62.414062 316.746094 64.546875 318.773438 66.726562 320.75 C 68.910156 322.726562 71.136719 324.648438 73.410156 326.515625 C 75.6875 328.382812 78.007812 330.195312 80.371094 331.949219 C 82.734375 333.699219 85.140625 335.394531 87.585938 337.03125 C 90.035156 338.664062 92.519531 340.238281 95.042969 341.753906 C 97.570312 343.265625 100.128906 344.714844 102.722656 346.105469 C 105.320312 347.492188 107.949219 348.8125 110.609375 350.070312 C 113.269531 351.332031 115.960938 352.523438 118.679688 353.648438 C 121.398438 354.777344 124.144531 355.835938 126.914062 356.824219 C 129.683594 357.816406 132.480469 358.742188 135.296875 359.59375 C 138.113281 360.449219 140.949219 361.234375 143.804688 361.949219 C 146.65625 362.664062 149.527344 363.308594 152.414062 363.882812 C 155.300781 364.457031 158.199219 364.960938 161.113281 365.390625 C 164.023438 365.824219 166.945312 366.183594 169.871094 366.472656 C 172.800781 366.761719 175.734375 366.976562 178.675781 367.121094 C 181.617188 367.265625 184.558594 367.339844 187.5 367.339844 C 190.441406 367.339844 193.382812 367.265625 196.324219 367.121094 C 199.265625 366.976562 202.199219 366.761719 205.128906 366.472656 C 208.054688 366.183594 210.976562 365.824219 213.886719 365.390625 C 216.800781 364.960938 219.699219 364.457031 222.585938 363.882812 C 225.472656 363.308594 228.34375 362.664062 231.195312 361.949219 C 234.050781 361.234375 236.886719 360.449219 239.703125 359.59375 C 242.519531 358.742188 245.316406 357.816406 248.085938 356.824219 C 250.855469 355.835938 253.601562 354.777344 256.320312 353.648438 C 259.039062 352.523438 261.730469 351.332031 264.390625 350.070312 C 267.050781 348.8125 269.679688 347.492188 272.273438 346.105469 C 274.871094 344.714844 277.429688 343.265625 279.957031 341.753906 C 282.480469 340.238281 284.964844 338.664062 287.414062 337.03125 C 289.859375 335.394531 292.265625 333.699219 294.628906 331.949219 C 296.992188 330.195312 299.3125 328.382812 301.589844 326.515625 C 303.863281 324.648438 306.089844 322.726562 308.273438 320.75 C 310.453125 318.773438 312.582031 316.746094 314.664062 314.664062 C 316.746094 312.582031 318.773438 310.453125 320.75 308.273438 C 322.726562 306.089844 324.648438 303.863281 326.515625 301.589844 C 328.382812 299.3125 330.195312 296.992188 331.949219 294.628906 C 333.699219 292.265625 335.394531 289.859375 337.03125 287.414062 C 338.664062 284.964844 340.238281 282.480469 341.753906 279.957031 C 343.265625 277.429688 344.714844 274.871094 346.105469 272.273438 C 347.492188 269.679688 348.8125 267.050781 350.070312 264.390625 C 351.332031 261.730469 352.523438 259.039062 353.648438 256.320312 C 354.777344 253.601562 355.835938 250.855469 356.824219 248.085938 C 357.816406 245.316406 358.742188 242.519531 359.59375 239.703125 C 360.449219 236.886719 361.234375 234.050781 361.949219 231.195312 C 362.664062 228.34375 363.308594 225.472656 363.882812 222.585938 C 364.457031 219.699219 364.960938 216.800781 365.390625 213.886719 C 365.824219 210.976562 366.183594 208.054688 366.472656 205.128906 C 366.761719 202.199219 366.976562 199.265625 367.121094 196.324219 C 367.265625 193.382812 367.339844 190.441406 367.339844 187.5 C 367.339844 184.558594 367.265625 181.617188 367.121094 178.675781 C 366.976562 175.734375 366.761719 172.800781 366.472656 169.871094 C 366.183594 166.945312 365.824219 164.023438 365.390625 161.113281 C 364.960938 158.199219 364.457031 155.300781 363.882812 152.414062 C 363.308594 149.527344 362.664062 146.65625 361.949219 143.804688 C 361.234375 140.949219 360.449219 138.113281 359.59375 135.296875 C 358.742188 132.480469 357.816406 129.683594 356.824219 126.914062 C 355.835938 124.144531 354.777344 121.398438 353.648438 118.679688 C 352.523438 115.960938 351.332031 113.269531 350.070312 110.609375 C 348.8125 107.949219 347.492188 105.320312 346.105469 102.722656 C 344.714844 100.128906 343.265625 97.570312 341.753906 95.042969 C 340.238281 92.519531 338.664062 90.035156 337.03125 87.585938 C 335.394531 85.140625 333.699219 82.734375 331.949219 80.371094 C 330.195312 78.007812 328.382812 75.6875 326.515625 73.410156 C 324.648438 71.136719 322.726562 68.910156 320.75 66.726562 C 318.773438 64.546875 316.746094 62.414062 314.664062 60.335938 C 312.582031 58.253906 310.453125 56.226562 308.273438 54.25 C 306.089844 52.273438 303.863281 50.351562 301.589844 48.484375 C 299.3125 46.617188 296.992188 44.804688 294.628906 43.050781 C 292.265625 41.300781 289.859375 39.605469 287.414062 37.96875 C 284.964844 36.335938 282.480469 34.761719 279.957031 33.246094 C 277.429688 31.734375 274.871094 30.285156 272.273438 28.894531 C 269.679688 27.507812 267.050781 26.1875 264.390625 24.925781 C 261.730469 23.667969 259.039062 22.476562 256.320312 21.351562 C 253.601562 20.222656 250.855469 19.164062 248.085938 18.175781 C 245.316406 17.183594 242.519531 16.257812 239.703125 15.40625 C 236.886719 14.550781 234.050781 13.765625 231.195312 13.050781 C 228.34375 12.335938 225.472656 11.691406 222.585938 11.117188 C 219.699219 10.542969 216.800781 10.039062 213.886719 9.609375 C 210.976562 9.175781 208.054688 8.816406 205.128906 8.527344 C 202.199219 8.238281 199.265625 8.023438 196.324219 7.878906 C 193.382812 7.734375 190.441406 7.660156 187.5 7.660156 Z M 187.5 7.660156 "/>
<path style=" stroke:none;fill-rule:nonzero;fill:rgb(100%,100%,100%);fill-opacity:1;" d="M 218.675781 157.121094 L 155.3125 157.121094 L 153.914062 167.472656 L 220.074219 167.472656 Z M 218.675781 157.121094 "/>
<path style=" stroke:none;fill-rule:nonzero;fill:rgb(100%,100%,100%);fill-opacity:1;" d="M 222.816406 188.179688 L 222.867188 188.179688 L 221.46875 177.828125 L 152.515625 177.828125 L 151.117188 188.179688 Z M 222.816406 188.179688 "/>
<path style=" stroke:none;fill-rule:nonzero;fill:rgb(100%,100%,100%);fill-opacity:1;" d="M 224.214844 198.53125 L 149.773438 198.53125 L 148.375 208.886719 L 225.613281 208.886719 Z M 224.214844 198.53125 "/>
<path style=" stroke:none;fill-rule:nonzero;fill:rgb(100%,100%,100%);fill-opacity:1;" d="M 226.957031 219.238281 L 147.027344 219.238281 L 145.632812 229.59375 L 228.355469 229.59375 Z M 226.957031 219.238281 "/>
<path style=" stroke:none;fill-rule:nonzero;fill:rgb(100%,100%,100%);fill-opacity:1;" d="M 229.753906 239.945312 L 144.234375 239.945312 L 142.886719 250.300781 L 231.097656 250.300781 Z M 229.753906 239.945312 "/>
<path style=" stroke:none;fill-rule:nonzero;fill:rgb(100%,100%,100%);fill-opacity:1;" d="M 232.496094 260.652344 L 141.488281 260.652344 L 140.09375 271.007812 L 233.894531 271.007812 Z M 232.496094 260.652344 "/>
<path style=" stroke:none;fill-rule:nonzero;fill:rgb(100%,100%,100%);fill-opacity:1;" d="M 166.285156 131.234375 C 166.289062 130.21875 166.390625 129.207031 166.59375 128.210938 C 166.792969 127.210938 167.089844 126.242188 167.480469 125.300781 C 167.871094 124.359375 168.351562 123.464844 168.917969 122.617188 C 169.484375 121.773438 170.128906 120.988281 170.847656 120.269531 C 171.570312 119.546875 172.351562 118.902344 173.199219 118.335938 C 174.046875 117.769531 174.941406 117.292969 175.878906 116.898438 C 176.820312 116.507812 177.792969 116.210938 178.789062 116.011719 C 179.789062 115.8125 180.796875 115.707031 181.816406 115.707031 L 192.167969 115.707031 C 193.1875 115.707031 194.199219 115.8125 195.195312 116.011719 C 196.195312 116.210938 197.164062 116.507812 198.105469 116.898438 C 199.046875 117.292969 199.941406 117.769531 200.785156 118.335938 C 201.632812 118.902344 202.417969 119.546875 203.136719 120.269531 C 203.859375 120.988281 204.5 121.773438 205.070312 122.617188 C 205.636719 123.464844 206.113281 124.359375 206.503906 125.300781 C 206.898438 126.242188 207.191406 127.210938 207.394531 128.210938 C 207.59375 129.207031 207.695312 130.21875 207.699219 131.234375 L 207.699219 146.765625 L 218.054688 146.765625 L 218.054688 102.558594 L 186.992188 75.949219 L 155.933594 102.558594 L 155.933594 146.765625 L 166.285156 146.765625 Z M 166.285156 131.234375 "/>
<path style=" stroke:none;fill-rule:nonzero;fill:rgb(100%,100%,100%);fill-opacity:1;" d="M 181.816406 126.058594 C 181.476562 126.058594 181.140625 126.09375 180.804688 126.160156 C 180.472656 126.226562 180.148438 126.324219 179.835938 126.453125 C 179.519531 126.582031 179.222656 126.742188 178.941406 126.929688 C 178.65625 127.121094 178.394531 127.335938 178.15625 127.574219 C 177.914062 127.816406 177.699219 128.078125 177.511719 128.359375 C 177.324219 128.640625 177.164062 128.941406 177.035156 129.253906 C 176.902344 129.570312 176.804688 129.890625 176.738281 130.226562 C 176.671875 130.558594 176.640625 130.894531 176.640625 131.234375 L 176.640625 146.765625 L 197.347656 146.765625 L 197.347656 131.234375 C 197.347656 130.894531 197.3125 130.558594 197.246094 130.226562 C 197.179688 129.890625 197.082031 129.570312 196.953125 129.253906 C 196.824219 128.941406 196.664062 128.640625 196.472656 128.359375 C 196.285156 128.078125 196.070312 127.816406 195.832031 127.574219 C 195.589844 127.335938 195.328125 127.121094 195.046875 126.929688 C 194.761719 126.742188 194.464844 126.582031 194.152344 126.453125 C 193.835938 126.324219 193.511719 126.226562 193.179688 126.160156 C 192.847656 126.09375 192.511719 126.058594 192.167969 126.058594 Z M 181.816406 126.058594 "/>
<g clip-path="url(#clip1)" clip-rule="nonzero">
<path style=" stroke:none;fill-rule:nonzero;fill:rgb(100%,100%,100%);fill-opacity:1;" d="M 307.765625 298.082031 C 306.355469 297.585938 304.90625 297.246094 303.421875 297.066406 C 301.9375 296.882812 300.453125 296.863281 298.964844 297.007812 C 297.476562 297.152344 296.019531 297.453125 294.597656 297.914062 C 293.175781 298.375 291.816406 298.980469 290.527344 299.738281 C 288.957031 298.824219 287.292969 298.128906 285.535156 297.652344 C 283.78125 297.179688 281.992188 296.941406 280.175781 296.941406 C 278.355469 296.941406 276.566406 297.179688 274.8125 297.652344 C 273.054688 298.128906 271.390625 298.824219 269.820312 299.738281 C 268.25 298.824219 266.585938 298.128906 264.828125 297.652344 C 263.074219 297.179688 261.285156 296.941406 259.46875 296.941406 C 257.648438 296.941406 255.859375 297.179688 254.105469 297.652344 C 252.347656 298.128906 250.683594 298.824219 249.113281 299.738281 C 248.789062 299.523438 248.445312 299.351562 248.078125 299.21875 C 246.351562 298.292969 244.519531 297.65625 242.589844 297.304688 C 240.859375 296.984375 239.117188 296.898438 237.363281 297.046875 L 235.292969 281.359375 L 138.695312 281.359375 L 136.625 297.046875 C 134.871094 296.898438 133.125 296.984375 131.394531 297.304688 C 129.464844 297.65625 127.636719 298.292969 125.90625 299.21875 C 125.542969 299.351562 125.195312 299.523438 124.871094 299.738281 C 123.300781 298.824219 121.636719 298.128906 119.882812 297.652344 C 118.125 297.179688 116.339844 296.941406 114.519531 296.941406 C 112.699219 296.941406 110.914062 297.179688 109.15625 297.652344 C 107.402344 298.128906 105.738281 298.824219 104.164062 299.738281 C 102.59375 298.824219 100.929688 298.128906 99.175781 297.652344 C 97.417969 297.179688 95.632812 296.941406 93.8125 296.941406 C 91.992188 296.941406 90.207031 297.179688 88.449219 297.652344 C 86.695312 298.128906 85.03125 298.824219 83.457031 299.738281 C 82.167969 298.980469 80.8125 298.375 79.390625 297.914062 C 77.964844 297.453125 76.511719 297.152344 75.023438 297.007812 C 73.535156 296.863281 72.046875 296.882812 70.5625 297.066406 C 69.078125 297.246094 67.632812 297.585938 66.21875 298.082031 C 65.898438 298.191406 65.59375 298.332031 65.296875 298.503906 C 65.003906 298.671875 64.730469 298.871094 64.476562 299.097656 C 64.222656 299.320312 63.996094 299.570312 63.789062 299.839844 C 63.585938 300.113281 63.410156 300.402344 63.265625 300.707031 C 63.117188 301.011719 63 301.332031 62.917969 301.660156 C 62.832031 301.988281 62.785156 302.320312 62.765625 302.660156 C 62.75 303 62.765625 303.335938 62.816406 303.671875 C 62.863281 304.007812 62.949219 304.335938 63.0625 304.65625 C 63.175781 304.972656 63.320312 305.277344 63.492188 305.570312 C 63.664062 305.859375 63.863281 306.132812 64.089844 306.382812 C 64.316406 306.636719 64.566406 306.863281 64.835938 307.066406 C 65.105469 307.269531 65.394531 307.441406 65.699219 307.589844 C 66.003906 307.734375 66.320312 307.851562 66.648438 307.933594 C 66.976562 308.019531 67.308594 308.070312 67.644531 308.089844 C 67.984375 308.109375 68.320312 308.097656 68.65625 308.050781 C 68.988281 308.003906 69.316406 307.925781 69.636719 307.8125 C 70.761719 307.441406 71.917969 307.253906 73.105469 307.246094 C 74.382812 307.242188 75.613281 307.472656 76.804688 307.9375 C 77.992188 308.402344 79.054688 309.070312 79.992188 309.9375 C 80.46875 310.359375 81.003906 310.6875 81.601562 310.914062 C 82.199219 311.140625 82.820312 311.253906 83.457031 311.253906 C 84.097656 311.253906 84.714844 311.140625 85.3125 310.914062 C 85.910156 310.6875 86.449219 310.359375 86.925781 309.9375 C 87.390625 309.507812 87.890625 309.125 88.429688 308.789062 C 88.964844 308.453125 89.527344 308.171875 90.117188 307.941406 C 90.703125 307.710938 91.308594 307.539062 91.929688 307.421875 C 92.554688 307.304688 93.179688 307.246094 93.8125 307.246094 C 94.445312 307.246094 95.070312 307.304688 95.691406 307.421875 C 96.3125 307.539062 96.917969 307.710938 97.507812 307.941406 C 98.097656 308.171875 98.660156 308.453125 99.195312 308.789062 C 99.730469 309.125 100.234375 309.507812 100.699219 309.9375 C 101.175781 310.359375 101.710938 310.6875 102.308594 310.914062 C 102.90625 311.140625 103.527344 311.253906 104.164062 311.253906 C 104.804688 311.253906 105.421875 311.140625 106.019531 310.914062 C 106.617188 310.6875 107.15625 310.359375 107.632812 309.9375 C 108.097656 309.507812 108.597656 309.125 109.136719 308.789062 C 109.671875 308.453125 110.234375 308.171875 110.824219 307.941406 C 111.410156 307.710938 112.015625 307.539062 112.636719 307.421875 C 113.261719 307.304688 113.886719 307.246094 114.519531 307.246094 C 115.152344 307.246094 115.777344 307.304688 116.398438 307.421875 C 117.019531 307.539062 117.625 307.710938 118.214844 307.941406 C 118.804688 308.171875 119.367188 308.453125 119.902344 308.789062 C 120.4375 309.125 120.941406 309.507812 121.402344 309.9375 C 122.097656 310.546875 122.898438 310.945312 123.804688 311.128906 C 124.707031 311.3125 125.601562 311.261719 126.476562 310.972656 C 127.1875 310.789062 127.808594 310.445312 128.339844 309.9375 C 128.804688 309.507812 129.304688 309.125 129.84375 308.789062 C 130.378906 308.453125 130.941406 308.171875 131.53125 307.941406 C 132.117188 307.710938 132.722656 307.539062 133.34375 307.421875 C 133.964844 307.304688 134.59375 307.246094 135.226562 307.246094 C 135.859375 307.246094 136.484375 307.304688 137.105469 307.421875 C 137.726562 307.539062 138.332031 307.710938 138.921875 307.941406 C 139.511719 308.171875 140.074219 308.453125 140.609375 308.789062 C 141.144531 309.125 141.644531 309.507812 142.109375 309.9375 C 142.589844 310.359375 143.125 310.6875 143.722656 310.914062 C 144.320312 311.140625 144.941406 311.253906 145.578125 311.253906 C 146.21875 311.253906 146.835938 311.140625 147.433594 310.914062 C 148.03125 310.6875 148.570312 310.359375 149.046875 309.9375 C 149.511719 309.507812 150.011719 309.125 150.550781 308.789062 C 151.085938 308.453125 151.648438 308.171875 152.238281 307.941406 C 152.824219 307.710938 153.429688 307.539062 154.050781 307.421875 C 154.671875 307.304688 155.300781 307.246094 155.933594 307.246094 C 156.566406 307.246094 157.191406 307.304688 157.8125 307.421875 C 158.433594 307.539062 159.039062 307.710938 159.628906 307.941406 C 160.21875 308.171875 160.78125 308.453125 161.316406 308.789062 C 161.851562 309.125 162.351562 309.507812 162.816406 309.9375 C 163.296875 310.359375 163.832031 310.6875 164.429688 310.914062 C 165.027344 311.140625 165.648438 311.253906 166.285156 311.253906 C 166.925781 311.253906 167.542969 311.140625 168.140625 310.914062 C 168.738281 310.6875 169.277344 310.359375 169.753906 309.9375 C 170.21875 309.507812 170.71875 309.125 171.257812 308.789062 C 171.792969 308.453125 172.355469 308.171875 172.945312 307.941406 C 173.53125 307.710938 174.136719 307.539062 174.757812 307.421875 C 175.378906 307.304688 176.007812 307.246094 176.640625 307.246094 C 177.273438 307.246094 177.898438 307.304688 178.519531 307.421875 C 179.140625 307.539062 179.746094 307.710938 180.335938 307.941406 C 180.925781 308.171875 181.488281 308.453125 182.023438 308.789062 C 182.558594 309.125 183.058594 309.507812 183.523438 309.9375 C 184.003906 310.359375 184.539062 310.6875 185.136719 310.914062 C 185.734375 311.140625 186.355469 311.253906 186.992188 311.253906 C 187.632812 311.253906 188.25 311.140625 188.847656 310.914062 C 189.445312 310.6875 189.984375 310.359375 190.460938 309.9375 C 190.925781 309.507812 191.425781 309.125 191.960938 308.789062 C 192.5 308.453125 193.0625 308.171875 193.648438 307.941406 C 194.238281 307.710938 194.84375 307.539062 195.464844 307.421875 C 196.085938 307.304688 196.714844 307.246094 197.347656 307.246094 C 197.980469 307.246094 198.605469 307.304688 199.226562 307.421875 C 199.847656 307.539062 200.453125 307.710938 201.042969 307.941406 C 201.632812 308.171875 202.195312 308.453125 202.730469 308.789062 C 203.265625 309.125 203.765625 309.507812 204.230469 309.9375 C 204.710938 310.359375 205.246094 310.6875 205.84375 310.914062 C 206.441406 311.140625 207.0625 311.253906 207.699219 311.253906 C 208.339844 311.253906 208.957031 311.140625 209.554688 310.914062 C 210.152344 310.6875 210.691406 310.359375 211.167969 309.9375 C 211.632812 309.507812 212.132812 309.125 212.667969 308.789062 C 213.207031 308.453125 213.769531 308.171875 214.355469 307.941406 C 214.945312 307.710938 215.550781 307.539062 216.171875 307.421875 C 216.792969 307.304688 217.421875 307.246094 218.054688 307.246094 C 218.6875 307.246094 219.3125 307.304688 219.933594 307.421875 C 220.554688 307.539062 221.160156 307.710938 221.75 307.941406 C 222.339844 308.171875 222.902344 308.453125 223.4375 308.789062 C 223.972656 309.125 224.472656 309.507812 224.9375 309.9375 C 225.417969 310.359375 225.953125 310.6875 226.550781 310.914062 C 227.148438 311.140625 227.765625 311.253906 228.40625 311.253906 C 229.046875 311.253906 229.664062 311.140625 230.261719 310.914062 C 230.859375 310.6875 231.398438 310.359375 231.875 309.9375 C 232.339844 309.507812 232.839844 309.125 233.375 308.789062 C 233.914062 308.453125 234.476562 308.171875 235.0625 307.941406 C 235.652344 307.710938 236.257812 307.539062 236.878906 307.421875 C 237.5 307.304688 238.128906 307.246094 238.761719 307.246094 C 239.394531 307.246094 240.019531 307.304688 240.640625 307.421875 C 241.261719 307.539062 241.867188 307.710938 242.457031 307.941406 C 243.046875 308.171875 243.609375 308.453125 244.144531 308.789062 C 244.679688 309.125 245.179688 309.507812 245.644531 309.9375 C 246.175781 310.445312 246.796875 310.789062 247.507812 310.972656 C 248.386719 311.261719 249.277344 311.3125 250.183594 311.128906 C 251.089844 310.945312 251.886719 310.546875 252.582031 309.9375 C 253.046875 309.507812 253.546875 309.125 254.082031 308.789062 C 254.621094 308.453125 255.183594 308.171875 255.769531 307.941406 C 256.359375 307.710938 256.964844 307.539062 257.585938 307.421875 C 258.207031 307.304688 258.835938 307.246094 259.46875 307.246094 C 260.097656 307.246094 260.726562 307.304688 261.347656 307.421875 C 261.96875 307.539062 262.574219 307.710938 263.164062 307.941406 C 263.753906 308.171875 264.316406 308.453125 264.851562 308.789062 C 265.386719 309.125 265.886719 309.507812 266.351562 309.9375 C 266.828125 310.359375 267.367188 310.6875 267.964844 310.914062 C 268.5625 311.140625 269.179688 311.253906 269.820312 311.253906 C 270.460938 311.253906 271.078125 311.140625 271.675781 310.914062 C 272.273438 310.6875 272.8125 310.359375 273.289062 309.9375 C 273.753906 309.507812 274.253906 309.125 274.789062 308.789062 C 275.328125 308.453125 275.890625 308.171875 276.476562 307.941406 C 277.066406 307.710938 277.671875 307.539062 278.292969 307.421875 C 278.914062 307.304688 279.542969 307.246094 280.175781 307.246094 C 280.804688 307.246094 281.433594 307.304688 282.054688 307.421875 C 282.675781 307.539062 283.28125 307.710938 283.871094 307.941406 C 284.460938 308.171875 285.023438 308.453125 285.558594 308.789062 C 286.09375 309.125 286.59375 309.507812 287.058594 309.9375 C 287.53125 310.367188 288.070312 310.703125 288.667969 310.933594 C 289.265625 311.167969 289.886719 311.28125 290.527344 311.28125 C 291.167969 311.28125 291.789062 311.167969 292.386719 310.933594 C 292.984375 310.703125 293.523438 310.367188 293.996094 309.9375 C 294.933594 309.070312 295.996094 308.402344 297.183594 307.9375 C 298.371094 307.472656 299.605469 307.242188 300.882812 307.246094 C 302.066406 307.253906 303.222656 307.441406 304.347656 307.8125 C 304.660156 307.894531 304.976562 307.945312 305.296875 307.964844 C 305.617188 307.984375 305.9375 307.976562 306.253906 307.9375 C 306.574219 307.898438 306.886719 307.832031 307.191406 307.734375 C 307.5 307.640625 307.792969 307.515625 308.074219 307.363281 C 308.359375 307.210938 308.625 307.035156 308.875 306.835938 C 309.125 306.632812 309.355469 306.410156 309.566406 306.167969 C 309.773438 305.925781 309.957031 305.664062 310.117188 305.386719 C 310.28125 305.105469 310.414062 304.816406 310.519531 304.515625 C 310.625 304.210938 310.703125 303.902344 310.75 303.582031 C 310.800781 303.265625 310.820312 302.945312 310.808594 302.625 C 310.796875 302.304688 310.757812 301.988281 310.6875 301.675781 C 310.617188 301.363281 310.519531 301.058594 310.394531 300.761719 C 310.265625 300.46875 310.113281 300.1875 309.9375 299.917969 C 309.757812 299.652344 309.554688 299.40625 309.332031 299.175781 C 309.105469 298.945312 308.863281 298.738281 308.597656 298.554688 C 308.335938 298.371094 308.058594 298.214844 307.765625 298.082031 Z M 307.765625 298.082031 "/>
</g>
<g clip-path="url(#clip2)" clip-rule="nonzero">
<path style=" stroke:none;fill-rule:nonzero;fill:rgb(100%,100%,100%);fill-opacity:1;" d="M 259.46875 120.882812 C 259.46875 121.222656 259.5 121.558594 259.566406 121.890625 C 259.632812 122.226562 259.730469 122.550781 259.859375 122.863281 C 259.992188 123.175781 260.152344 123.476562 260.339844 123.757812 C 260.527344 124.042969 260.742188 124.300781 260.984375 124.542969 C 261.222656 124.785156 261.484375 124.996094 261.769531 125.1875 C 262.050781 125.375 262.347656 125.535156 262.664062 125.664062 C 262.976562 125.796875 263.300781 125.894531 263.632812 125.960938 C 263.96875 126.027344 264.304688 126.058594 264.644531 126.058594 L 306.058594 126.058594 C 306.398438 126.058594 306.734375 126.027344 307.066406 125.960938 C 307.402344 125.894531 307.722656 125.796875 308.039062 125.664062 C 308.351562 125.535156 308.652344 125.375 308.933594 125.1875 C 309.214844 124.996094 309.476562 124.785156 309.71875 124.542969 C 309.957031 124.300781 310.171875 124.042969 310.363281 123.757812 C 310.550781 123.476562 310.710938 123.175781 310.839844 122.863281 C 310.96875 122.550781 311.070312 122.226562 311.136719 121.890625 C 311.199219 121.558594 311.234375 121.222656 311.234375 120.882812 C 311.234375 120.542969 311.199219 120.207031 311.136719 119.871094 C 311.070312 119.539062 310.96875 119.214844 310.839844 118.902344 C 310.710938 118.585938 310.550781 118.289062 310.363281 118.007812 C 310.171875 117.722656 309.957031 117.460938 309.71875 117.222656 C 309.476562 116.980469 309.214844 116.765625 308.933594 116.578125 C 308.652344 116.390625 308.351562 116.230469 308.039062 116.101562 C 307.722656 115.96875 307.402344 115.871094 307.066406 115.804688 C 306.734375 115.738281 306.398438 115.707031 306.058594 115.707031 L 264.644531 115.707031 C 264.304688 115.707031 263.96875 115.738281 263.632812 115.804688 C 263.300781 115.871094 262.976562 115.96875 262.664062 116.101562 C 262.347656 116.230469 262.050781 116.390625 261.769531 116.578125 C 261.484375 116.765625 261.222656 116.980469 260.984375 117.222656 C 260.742188 117.460938 260.527344 117.722656 260.339844 118.007812 C 260.152344 118.289062 259.992188 118.585938 259.859375 118.902344 C 259.730469 119.214844 259.632812 119.539062 259.566406 119.871094 C 259.5 120.207031 259.46875 120.542969 259.46875 120.882812 Z M 259.46875 120.882812 "/>
</g>
<path style=" stroke:none;fill-rule:nonzero;fill:rgb(100%,100%,100%);fill-opacity:1;" d="M 256.921875 92.300781 C 257.707031 92.300781 258.457031 92.128906 259.167969 91.785156 L 296.4375 73.773438 C 296.765625 73.640625 297.074219 73.476562 297.367188 73.277344 C 297.660156 73.082031 297.929688 72.855469 298.175781 72.605469 C 298.421875 72.351562 298.640625 72.078125 298.832031 71.78125 C 299.019531 71.484375 299.179688 71.171875 299.304688 70.84375 C 299.433594 70.511719 299.523438 70.175781 299.582031 69.828125 C 299.640625 69.480469 299.660156 69.128906 299.648438 68.777344 C 299.632812 68.425781 299.582031 68.078125 299.496094 67.734375 C 299.414062 67.394531 299.292969 67.0625 299.140625 66.746094 C 298.988281 66.425781 298.804688 66.128906 298.589844 65.847656 C 298.378906 65.566406 298.136719 65.3125 297.871094 65.078125 C 297.605469 64.847656 297.320312 64.644531 297.011719 64.472656 C 296.703125 64.300781 296.382812 64.160156 296.046875 64.054688 C 295.710938 63.945312 295.367188 63.875 295.019531 63.835938 C 294.667969 63.800781 294.316406 63.796875 293.964844 63.832031 C 293.613281 63.867188 293.269531 63.9375 292.933594 64.042969 C 292.597656 64.148438 292.273438 64.285156 291.964844 64.457031 L 254.695312 82.460938 C 254.167969 82.714844 253.695312 83.050781 253.285156 83.464844 C 252.871094 83.882812 252.535156 84.351562 252.285156 84.878906 C 252.03125 85.410156 251.871094 85.964844 251.804688 86.546875 C 251.742188 87.128906 251.773438 87.703125 251.90625 88.273438 C 252.035156 88.847656 252.257812 89.378906 252.566406 89.875 C 252.878906 90.371094 253.265625 90.800781 253.722656 91.167969 C 254.179688 91.53125 254.6875 91.8125 255.238281 92.003906 C 255.792969 92.199219 256.359375 92.296875 256.945312 92.296875 Z M 256.921875 92.300781 "/>
<path style=" stroke:none;fill-rule:nonzero;fill:rgb(100%,100%,100%);fill-opacity:1;" d="M 254.667969 159.304688 L 291.941406 177.308594 C 292.648438 177.652344 293.398438 177.828125 294.1875 177.828125 C 294.773438 177.824219 295.34375 177.730469 295.894531 177.535156 C 296.449219 177.339844 296.953125 177.0625 297.410156 176.695312 C 297.867188 176.332031 298.253906 175.902344 298.566406 175.40625 C 298.878906 174.910156 299.097656 174.375 299.230469 173.804688 C 299.359375 173.234375 299.390625 172.65625 299.328125 172.074219 C 299.261719 171.492188 299.101562 170.9375 298.851562 170.410156 C 298.597656 169.882812 298.261719 169.410156 297.851562 168.996094 C 297.4375 168.582031 296.964844 168.246094 296.4375 167.992188 L 259.167969 149.980469 C 258.859375 149.820312 258.539062 149.6875 258.207031 149.59375 C 257.871094 149.496094 257.53125 149.429688 257.1875 149.402344 C 256.839844 149.375 256.492188 149.378906 256.148438 149.421875 C 255.804688 149.460938 255.464844 149.535156 255.136719 149.644531 C 254.804688 149.753906 254.488281 149.894531 254.1875 150.066406 C 253.886719 150.238281 253.605469 150.4375 253.34375 150.667969 C 253.082031 150.898438 252.847656 151.148438 252.636719 151.425781 C 252.425781 151.703125 252.246094 151.996094 252.09375 152.3125 C 251.941406 152.625 251.824219 152.949219 251.738281 153.285156 C 251.652344 153.621094 251.601562 153.964844 251.585938 154.3125 C 251.566406 154.660156 251.585938 155.003906 251.640625 155.347656 C 251.691406 155.691406 251.777344 156.023438 251.898438 156.351562 C 252.019531 156.675781 252.167969 156.988281 252.351562 157.285156 C 252.535156 157.578125 252.746094 157.855469 252.984375 158.105469 C 253.222656 158.359375 253.480469 158.585938 253.765625 158.789062 C 254.050781 158.988281 254.351562 159.160156 254.667969 159.300781 Z M 254.667969 159.304688 "/>
<g clip-path="url(#clip3)" clip-rule="nonzero">
<path style=" stroke:none;fill-rule:nonzero;fill:rgb(100%,100%,100%);fill-opacity:1;" d="M 67.929688 126.058594 L 109.34375 126.058594 C 109.683594 126.058594 110.019531 126.027344 110.351562 125.960938 C 110.6875 125.894531 111.007812 125.796875 111.324219 125.664062 C 111.636719 125.535156 111.9375 125.375 112.21875 125.1875 C 112.5 124.996094 112.761719 124.785156 113.003906 124.542969 C 113.242188 124.300781 113.457031 124.042969 113.648438 123.757812 C 113.835938 123.476562 113.996094 123.175781 114.125 122.863281 C 114.253906 122.550781 114.351562 122.226562 114.417969 121.890625 C 114.484375 121.558594 114.519531 121.222656 114.519531 120.882812 C 114.519531 120.542969 114.484375 120.207031 114.417969 119.871094 C 114.351562 119.539062 114.253906 119.214844 114.125 118.902344 C 113.996094 118.585938 113.835938 118.289062 113.648438 118.007812 C 113.457031 117.722656 113.242188 117.460938 113.003906 117.222656 C 112.761719 116.980469 112.5 116.765625 112.21875 116.578125 C 111.9375 116.390625 111.636719 116.230469 111.324219 116.101562 C 111.007812 115.96875 110.6875 115.871094 110.351562 115.804688 C 110.019531 115.738281 109.683594 115.707031 109.34375 115.707031 L 67.929688 115.707031 C 67.589844 115.707031 67.253906 115.738281 66.917969 115.804688 C 66.585938 115.871094 66.261719 115.96875 65.949219 116.101562 C 65.632812 116.230469 65.335938 116.390625 65.050781 116.578125 C 64.769531 116.765625 64.507812 116.980469 64.269531 117.222656 C 64.027344 117.460938 63.8125 117.722656 63.625 118.007812 C 63.4375 118.289062 63.277344 118.585938 63.144531 118.902344 C 63.015625 119.214844 62.917969 119.539062 62.851562 119.871094 C 62.785156 120.207031 62.753906 120.542969 62.753906 120.882812 C 62.753906 121.222656 62.785156 121.558594 62.851562 121.890625 C 62.917969 122.226562 63.015625 122.550781 63.144531 122.863281 C 63.277344 123.175781 63.4375 123.476562 63.625 123.757812 C 63.8125 124.042969 64.027344 124.300781 64.269531 124.542969 C 64.507812 124.785156 64.769531 124.996094 65.050781 125.1875 C 65.335938 125.375 65.632812 125.535156 65.949219 125.664062 C 66.261719 125.796875 66.585938 125.894531 66.917969 125.960938 C 67.253906 126.027344 67.589844 126.058594 67.929688 126.058594 Z M 67.929688 126.058594 "/>
</g>
<path style=" stroke:none;fill-rule:nonzero;fill:rgb(100%,100%,100%);fill-opacity:1;" d="M 77.519531 73.773438 L 114.820312 91.785156 C 115.125 91.917969 115.4375 92.023438 115.761719 92.09375 C 116.085938 92.167969 116.414062 92.210938 116.746094 92.222656 C 117.078125 92.230469 117.410156 92.210938 117.738281 92.15625 C 118.066406 92.101562 118.382812 92.019531 118.695312 91.902344 C 119.007812 91.789062 119.304688 91.644531 119.589844 91.472656 C 119.875 91.300781 120.140625 91.101562 120.386719 90.878906 C 120.632812 90.65625 120.855469 90.410156 121.054688 90.144531 C 121.253906 89.878906 121.425781 89.597656 121.570312 89.296875 C 121.714844 89 121.828125 88.6875 121.914062 88.367188 C 121.996094 88.046875 122.050781 87.71875 122.070312 87.386719 C 122.09375 87.054688 122.082031 86.726562 122.042969 86.394531 C 122 86.066406 121.925781 85.742188 121.824219 85.425781 C 121.71875 85.113281 121.585938 84.808594 121.425781 84.519531 C 121.261719 84.230469 121.074219 83.957031 120.859375 83.703125 C 120.644531 83.449219 120.40625 83.21875 120.148438 83.011719 C 119.886719 82.800781 119.613281 82.621094 119.316406 82.464844 L 82.019531 64.457031 C 81.710938 64.292969 81.390625 64.164062 81.058594 64.066406 C 80.722656 63.96875 80.382812 63.90625 80.039062 63.878906 C 79.691406 63.847656 79.347656 63.855469 79 63.894531 C 78.65625 63.9375 78.320312 64.011719 77.988281 64.121094 C 77.660156 64.230469 77.34375 64.371094 77.039062 64.542969 C 76.738281 64.714844 76.457031 64.914062 76.195312 65.144531 C 75.933594 65.371094 75.699219 65.625 75.488281 65.902344 C 75.277344 66.179688 75.097656 66.472656 74.945312 66.785156 C 74.796875 67.097656 74.675781 67.425781 74.589844 67.761719 C 74.503906 68.097656 74.453125 68.441406 74.4375 68.785156 C 74.421875 69.132812 74.4375 69.480469 74.492188 69.824219 C 74.542969 70.164062 74.628906 70.5 74.75 70.828125 C 74.871094 71.152344 75.023438 71.464844 75.207031 71.757812 C 75.386719 72.054688 75.597656 72.328125 75.835938 72.582031 C 76.074219 72.835938 76.335938 73.0625 76.617188 73.261719 C 76.902344 73.464844 77.203125 73.632812 77.519531 73.773438 Z M 77.519531 73.773438 "/>
<path style=" stroke:none;fill-rule:nonzero;fill:rgb(100%,100%,100%);fill-opacity:1;" d="M 114.820312 149.980469 L 77.519531 167.992188 C 77.203125 168.128906 76.902344 168.300781 76.617188 168.5 C 76.335938 168.703125 76.074219 168.929688 75.835938 169.183594 C 75.597656 169.4375 75.386719 169.710938 75.207031 170.003906 C 75.023438 170.300781 74.871094 170.613281 74.75 170.9375 C 74.628906 171.265625 74.542969 171.597656 74.492188 171.941406 C 74.4375 172.285156 74.421875 172.632812 74.4375 172.976562 C 74.453125 173.324219 74.503906 173.667969 74.589844 174.003906 C 74.675781 174.339844 74.796875 174.664062 74.945312 174.976562 C 75.097656 175.292969 75.277344 175.585938 75.488281 175.863281 C 75.699219 176.140625 75.933594 176.390625 76.195312 176.621094 C 76.457031 176.851562 76.738281 177.050781 77.039062 177.222656 C 77.34375 177.394531 77.660156 177.535156 77.988281 177.644531 C 78.320312 177.753906 78.65625 177.828125 79 177.867188 C 79.347656 177.910156 79.691406 177.914062 80.039062 177.886719 C 80.382812 177.859375 80.722656 177.792969 81.058594 177.699219 C 81.390625 177.601562 81.710938 177.46875 82.019531 177.308594 L 119.316406 159.304688 C 119.613281 159.148438 119.886719 158.96875 120.148438 158.757812 C 120.40625 158.550781 120.644531 158.320312 120.859375 158.066406 C 121.074219 157.8125 121.261719 157.542969 121.425781 157.25 C 121.585938 156.960938 121.71875 156.660156 121.824219 156.34375 C 121.925781 156.027344 122 155.703125 122.042969 155.375 C 122.082031 155.046875 122.09375 154.714844 122.070312 154.382812 C 122.050781 154.050781 121.996094 153.726562 121.914062 153.402344 C 121.828125 153.082031 121.710938 152.773438 121.570312 152.472656 C 121.425781 152.171875 121.253906 151.890625 121.054688 151.625 C 120.855469 151.359375 120.632812 151.113281 120.386719 150.890625 C 120.140625 150.667969 119.875 150.46875 119.589844 150.296875 C 119.304688 150.125 119.007812 149.980469 118.695312 149.867188 C 118.382812 149.75 118.066406 149.667969 117.738281 149.613281 C 117.410156 149.558594 117.078125 149.539062 116.746094 149.550781 C 116.414062 149.558594 116.085938 149.601562 115.761719 149.675781 C 115.4375 149.75 115.125 149.851562 114.820312 149.984375 Z M 114.820312 149.980469 "/>
<g clip-path="url(#clip4)" clip-rule="nonzero">
<g clip-path="url(#clip5)" clip-rule="nonzero">
<g clip-path="url(#clip6)" clip-rule="nonzero">
<path style=" stroke:none;fill-rule:nonzero;fill:rgb(100%,92.549133%,30.589294%);fill-opacity:1;" d="M 80.558594 62.507812 L 118.886719 80.132812 C 119.304688 80.324219 119.703125 80.558594 120.074219 80.832031 C 120.449219 81.101562 120.792969 81.410156 121.105469 81.75 C 121.417969 82.089844 121.695312 82.460938 121.933594 82.855469 C 122.175781 83.253906 122.375 83.667969 122.53125 84.105469 C 122.691406 84.542969 122.804688 84.992188 122.875 85.453125 C 122.945312 85.914062 122.972656 86.375 122.953125 86.84375 C 122.929688 87.308594 122.867188 87.769531 122.757812 88.222656 C 122.644531 88.679688 122.492188 89.117188 122.296875 89.542969 C 122.101562 89.96875 121.867188 90.371094 121.59375 90.75 C 121.320312 91.128906 121.015625 91.480469 120.671875 91.796875 C 120.332031 92.117188 119.964844 92.398438 119.566406 92.644531 C 119.171875 92.890625 118.757812 93.097656 118.320312 93.261719 C 117.886719 93.425781 117.441406 93.542969 116.984375 93.621094 C 116.527344 93.695312 116.066406 93.726562 115.605469 93.710938 C 115.140625 93.695312 114.6875 93.632812 114.238281 93.527344 C 113.789062 93.421875 113.351562 93.273438 112.933594 93.078125 L 74.605469 75.453125 C 74.183594 75.261719 73.789062 75.027344 73.414062 74.753906 C 73.042969 74.484375 72.699219 74.175781 72.386719 73.835938 C 72.074219 73.496094 71.796875 73.125 71.558594 72.730469 C 71.316406 72.332031 71.117188 71.917969 70.960938 71.480469 C 70.800781 71.042969 70.6875 70.59375 70.617188 70.132812 C 70.546875 69.671875 70.519531 69.210938 70.539062 68.742188 C 70.558594 68.277344 70.625 67.816406 70.734375 67.359375 C 70.84375 66.90625 70.996094 66.46875 71.191406 66.042969 C 71.390625 65.617188 71.625 65.214844 71.898438 64.835938 C 72.171875 64.457031 72.476562 64.105469 72.820312 63.789062 C 73.160156 63.46875 73.527344 63.1875 73.921875 62.941406 C 74.320312 62.695312 74.734375 62.488281 75.167969 62.324219 C 75.605469 62.160156 76.050781 62.039062 76.507812 61.964844 C 76.964844 61.890625 77.425781 61.859375 77.886719 61.875 C 78.347656 61.890625 78.804688 61.953125 79.253906 62.058594 C 79.703125 62.164062 80.140625 62.3125 80.558594 62.507812 Z M 80.558594 62.507812 "/>
</g>
</g>
</g>
<g clip-path="url(#clip7)" clip-rule="nonzero">
<g clip-path="url(#clip8)" clip-rule="nonzero">
<g clip-path="url(#clip9)" clip-rule="nonzero">
<path style=" stroke:none;fill-rule:nonzero;fill:rgb(100%,92.549133%,30.589294%);fill-opacity:1;" d="M 260.074219 147.667969 L 298.402344 165.292969 C 298.824219 165.488281 299.21875 165.71875 299.59375 165.992188 C 299.964844 166.265625 300.308594 166.570312 300.621094 166.910156 C 300.933594 167.25 301.210938 167.621094 301.449219 168.015625 C 301.691406 168.414062 301.890625 168.832031 302.046875 169.265625 C 302.207031 169.703125 302.320312 170.152344 302.390625 170.613281 C 302.460938 171.074219 302.488281 171.539062 302.46875 172.003906 C 302.445312 172.472656 302.382812 172.929688 302.273438 173.386719 C 302.164062 173.839844 302.011719 174.28125 301.8125 174.707031 C 301.617188 175.128906 301.382812 175.53125 301.109375 175.910156 C 300.835938 176.289062 300.53125 176.640625 300.1875 176.957031 C 299.847656 177.277344 299.480469 177.558594 299.082031 177.804688 C 298.6875 178.050781 298.273438 178.257812 297.839844 178.421875 C 297.402344 178.585938 296.957031 178.707031 296.5 178.78125 C 296.042969 178.859375 295.582031 178.886719 295.121094 178.871094 C 294.660156 178.855469 294.203125 178.796875 293.753906 178.6875 C 293.304688 178.582031 292.867188 178.433594 292.449219 178.242188 L 254.121094 160.613281 C 253.699219 160.421875 253.304688 160.1875 252.929688 159.917969 C 252.558594 159.644531 252.214844 159.339844 251.902344 158.996094 C 251.589844 158.65625 251.3125 158.289062 251.074219 157.890625 C 250.832031 157.496094 250.632812 157.078125 250.476562 156.640625 C 250.316406 156.203125 250.203125 155.753906 250.132812 155.292969 C 250.0625 154.835938 250.035156 154.371094 250.054688 153.902344 C 250.078125 153.4375 250.140625 152.976562 250.25 152.523438 C 250.359375 152.066406 250.515625 151.628906 250.710938 151.203125 C 250.90625 150.777344 251.140625 150.375 251.414062 149.996094 C 251.6875 149.617188 251.992188 149.269531 252.335938 148.949219 C 252.675781 148.628906 253.042969 148.347656 253.441406 148.101562 C 253.835938 147.855469 254.25 147.652344 254.683594 147.484375 C 255.121094 147.320312 255.566406 147.203125 256.023438 147.125 C 256.480469 147.050781 256.941406 147.019531 257.402344 147.035156 C 257.867188 147.050781 258.320312 147.113281 258.769531 147.21875 C 259.21875 147.324219 259.65625 147.476562 260.074219 147.667969 Z M 260.074219 147.667969 "/>
</g>
</g>
</g>
<g clip-path="url(#clip10)" clip-rule="nonzero">
<path style=" stroke:none;fill-rule:nonzero;fill:rgb(100%,92.549133%,30.589294%);fill-opacity:1;" d="M 69.785156 113.082031 L 111.972656 113.082031 C 112.433594 113.082031 112.890625 113.128906 113.34375 113.21875 C 113.796875 113.308594 114.234375 113.445312 114.660156 113.625 C 115.089844 113.804688 115.492188 114.023438 115.878906 114.28125 C 116.261719 114.542969 116.617188 114.839844 116.941406 115.167969 C 117.269531 115.5 117.558594 115.859375 117.816406 116.25 C 118.074219 116.636719 118.289062 117.046875 118.464844 117.480469 C 118.644531 117.914062 118.777344 118.359375 118.867188 118.816406 C 118.957031 119.277344 119.003906 119.738281 119.003906 120.207031 C 119.003906 120.675781 118.957031 121.136719 118.867188 121.597656 C 118.777344 122.054688 118.644531 122.5 118.464844 122.933594 C 118.289062 123.367188 118.074219 123.777344 117.816406 124.164062 C 117.558594 124.554688 117.269531 124.914062 116.941406 125.246094 C 116.617188 125.578125 116.261719 125.871094 115.878906 126.132812 C 115.492188 126.390625 115.089844 126.609375 114.660156 126.789062 C 114.234375 126.96875 113.796875 127.105469 113.34375 127.195312 C 112.890625 127.285156 112.433594 127.332031 111.972656 127.332031 L 69.785156 127.332031 C 69.320312 127.332031 68.863281 127.285156 68.410156 127.195312 C 67.957031 127.105469 67.519531 126.96875 67.09375 126.789062 C 66.664062 126.609375 66.261719 126.390625 65.875 126.132812 C 65.492188 125.871094 65.136719 125.578125 64.8125 125.246094 C 64.484375 124.914062 64.195312 124.554688 63.9375 124.164062 C 63.679688 123.777344 63.464844 123.367188 63.289062 122.933594 C 63.109375 122.5 62.976562 122.054688 62.886719 121.597656 C 62.796875 121.136719 62.753906 120.675781 62.753906 120.207031 C 62.753906 119.738281 62.796875 119.277344 62.886719 118.816406 C 62.976562 118.359375 63.109375 117.914062 63.289062 117.480469 C 63.464844 117.046875 63.679688 116.636719 63.9375 116.25 C 64.195312 115.859375 64.484375 115.5 64.8125 115.167969 C 65.136719 114.839844 65.492188 114.542969 65.875 114.28125 C 66.261719 114.023438 66.664062 113.804688 67.09375 113.625 C 67.519531 113.445312 67.957031 113.308594 68.410156 113.21875 C 68.863281 113.128906 69.320312 113.082031 69.785156 113.082031 Z M 69.785156 113.082031 "/>
</g>
<g clip-path="url(#clip11)" clip-rule="nonzero">
<path style=" stroke:none;fill-rule:nonzero;fill:rgb(100%,92.549133%,30.589294%);fill-opacity:1;" d="M 262.585938 113.082031 L 304.773438 113.082031 C 305.234375 113.082031 305.691406 113.128906 306.144531 113.21875 C 306.597656 113.308594 307.039062 113.445312 307.464844 113.625 C 307.890625 113.804688 308.296875 114.023438 308.679688 114.28125 C 309.0625 114.542969 309.417969 114.839844 309.746094 115.167969 C 310.070312 115.5 310.363281 115.859375 310.621094 116.25 C 310.875 116.636719 311.09375 117.046875 311.269531 117.480469 C 311.445312 117.914062 311.578125 118.359375 311.667969 118.816406 C 311.757812 119.277344 311.804688 119.738281 311.804688 120.207031 C 311.804688 120.675781 311.757812 121.136719 311.667969 121.597656 C 311.578125 122.054688 311.445312 122.5 311.269531 122.933594 C 311.09375 123.367188 310.875 123.777344 310.621094 124.164062 C 310.363281 124.554688 310.070312 124.914062 309.746094 125.246094 C 309.417969 125.578125 309.0625 125.871094 308.679688 126.132812 C 308.296875 126.390625 307.890625 126.609375 307.464844 126.789062 C 307.039062 126.96875 306.597656 127.105469 306.144531 127.195312 C 305.691406 127.285156 305.234375 127.332031 304.773438 127.332031 L 262.585938 127.332031 C 262.125 127.332031 261.667969 127.285156 261.214844 127.195312 C 260.761719 127.105469 260.320312 126.96875 259.894531 126.789062 C 259.46875 126.609375 259.0625 126.390625 258.679688 126.132812 C 258.296875 125.871094 257.941406 125.578125 257.613281 125.246094 C 257.289062 124.914062 256.996094 124.554688 256.738281 124.164062 C 256.484375 123.777344 256.265625 123.367188 256.089844 122.933594 C 255.914062 122.5 255.78125 122.054688 255.691406 121.597656 C 255.597656 121.136719 255.554688 120.675781 255.554688 120.207031 C 255.554688 119.738281 255.597656 119.277344 255.691406 118.816406 C 255.78125 118.359375 255.914062 117.914062 256.089844 117.480469 C 256.265625 117.046875 256.484375 116.636719 256.738281 116.25 C 256.996094 115.859375 257.289062 115.5 257.613281 115.167969 C 257.941406 114.839844 258.296875 114.542969 258.679688 114.28125 C 259.0625 114.023438 259.46875 113.804688 259.894531 113.625 C 260.320312 113.445312 260.761719 113.308594 261.214844 113.21875 C 261.667969 113.128906 262.125 113.082031 262.585938 113.082031 Z M 262.585938 113.082031 "/>
</g>
<g clip-path="url(#clip12)" clip-rule="nonzero">
<g clip-path="url(#clip13)" clip-rule="nonzero">
<g clip-path="url(#clip14)" clip-rule="nonzero">
<path style=" stroke:none;fill-rule:nonzero;fill:rgb(100%,92.549133%,30.589294%);fill-opacity:1;" d="M 74.710938 165.585938 L 112.945312 147.761719 C 113.363281 147.566406 113.796875 147.414062 114.246094 147.304688 C 114.695312 147.195312 115.152344 147.132812 115.613281 147.113281 C 116.074219 147.097656 116.535156 147.125 116.992188 147.199219 C 117.453125 147.269531 117.898438 147.390625 118.332031 147.550781 C 118.769531 147.710938 119.1875 147.914062 119.582031 148.160156 C 119.980469 148.402344 120.347656 148.683594 120.691406 149 C 121.035156 149.320312 121.34375 149.667969 121.621094 150.042969 C 121.894531 150.421875 122.132812 150.824219 122.328125 151.246094 C 122.527344 151.671875 122.683594 152.109375 122.792969 152.5625 C 122.90625 153.019531 122.972656 153.476562 122.996094 153.945312 C 123.019531 154.410156 122.996094 154.875 122.929688 155.335938 C 122.859375 155.796875 122.746094 156.246094 122.589844 156.683594 C 122.433594 157.121094 122.238281 157.539062 122 157.9375 C 121.761719 158.335938 121.488281 158.703125 121.175781 159.046875 C 120.867188 159.390625 120.523438 159.699219 120.152344 159.972656 C 119.78125 160.246094 119.386719 160.480469 118.96875 160.675781 L 80.730469 178.5 C 80.3125 178.695312 79.878906 178.847656 79.429688 178.957031 C 78.980469 179.066406 78.523438 179.128906 78.0625 179.148438 C 77.601562 179.164062 77.140625 179.136719 76.683594 179.0625 C 76.226562 178.992188 75.777344 178.871094 75.34375 178.710938 C 74.90625 178.550781 74.492188 178.347656 74.09375 178.101562 C 73.695312 177.859375 73.328125 177.578125 72.984375 177.261719 C 72.640625 176.941406 72.332031 176.59375 72.058594 176.21875 C 71.78125 175.839844 71.546875 175.4375 71.347656 175.015625 C 71.148438 174.589844 70.996094 174.152344 70.882812 173.699219 C 70.769531 173.246094 70.703125 172.785156 70.679688 172.316406 C 70.65625 171.851562 70.679688 171.386719 70.75 170.925781 C 70.816406 170.464844 70.929688 170.015625 71.085938 169.578125 C 71.242188 169.140625 71.4375 168.722656 71.675781 168.324219 C 71.914062 167.925781 72.1875 167.558594 72.5 167.214844 C 72.8125 166.871094 73.152344 166.5625 73.523438 166.289062 C 73.894531 166.015625 74.292969 165.78125 74.710938 165.585938 Z M 74.710938 165.585938 "/>
</g>
</g>
</g>
<g clip-path="url(#clip15)" clip-rule="nonzero">
<g clip-path="url(#clip16)" clip-rule="nonzero">
<g clip-path="url(#clip17)" clip-rule="nonzero">
<path style=" stroke:none;fill-rule:nonzero;fill:rgb(100%,92.549133%,30.589294%);fill-opacity:1;" d="M 254.226562 80.425781 L 292.460938 62.597656 C 292.878906 62.402344 293.3125 62.253906 293.761719 62.144531 C 294.210938 62.035156 294.667969 61.972656 295.128906 61.953125 C 295.59375 61.9375 296.050781 61.964844 296.511719 62.035156 C 296.96875 62.109375 297.414062 62.226562 297.851562 62.390625 C 298.285156 62.550781 298.703125 62.753906 299.097656 63 C 299.496094 63.242188 299.867188 63.523438 300.207031 63.839844 C 300.550781 64.15625 300.859375 64.503906 301.136719 64.882812 C 301.410156 65.261719 301.648438 65.660156 301.84375 66.085938 C 302.042969 66.507812 302.199219 66.949219 302.308594 67.402344 C 302.421875 67.855469 302.488281 68.316406 302.511719 68.78125 C 302.535156 69.25 302.511719 69.714844 302.445312 70.175781 C 302.375 70.636719 302.265625 71.085938 302.109375 71.523438 C 301.953125 71.960938 301.753906 72.378906 301.515625 72.777344 C 301.277344 73.171875 301.003906 73.542969 300.691406 73.886719 C 300.382812 74.226562 300.039062 74.535156 299.667969 74.8125 C 299.296875 75.085938 298.902344 75.320312 298.484375 75.515625 L 260.246094 93.339844 C 259.828125 93.535156 259.394531 93.6875 258.945312 93.796875 C 258.496094 93.90625 258.042969 93.96875 257.578125 93.984375 C 257.117188 94.003906 256.65625 93.976562 256.199219 93.902344 C 255.742188 93.828125 255.292969 93.710938 254.859375 93.550781 C 254.421875 93.386719 254.007812 93.183594 253.609375 92.941406 C 253.214844 92.695312 252.84375 92.414062 252.5 92.097656 C 252.15625 91.78125 251.847656 91.433594 251.574219 91.054688 C 251.296875 90.679688 251.0625 90.277344 250.863281 89.855469 C 250.664062 89.429688 250.511719 88.992188 250.398438 88.535156 C 250.285156 88.082031 250.21875 87.621094 250.195312 87.15625 C 250.175781 86.691406 250.195312 86.226562 250.265625 85.765625 C 250.332031 85.304688 250.445312 84.855469 250.601562 84.417969 C 250.757812 83.980469 250.953125 83.5625 251.191406 83.164062 C 251.429688 82.765625 251.707031 82.394531 252.015625 82.054688 C 252.328125 81.710938 252.667969 81.402344 253.039062 81.128906 C 253.410156 80.855469 253.808594 80.621094 254.226562 80.425781 Z M 254.226562 80.425781 "/>
</g>
</g>
</g>
</g>
</svg>
